Coordinates
version=1
nRows=11
nColumns=36
inDegrees=yes

Units are S.I. units (second, meters, Newtons, ...)
If the header above contains a line with 'inDegrees', this indicates whether rotational values are in degrees (yes) or radians (no).

endheader
time	pelvis_tilt	pelvis_list	pelvis_rotation	pelvis_tx	pelvis_ty	pelvis_tz	hip_flexion_r	hip_adduction_r	hip_rotation_r	knee_angle_r	knee_angle_r_beta	ankle_angle_r	subtalar_angle_r	mtp_angle_r	hip_flexion_l	hip_adduction_l	hip_rotation_l	knee_angle_l	knee_angle_l_beta	ankle_angle_l	subtalar_angle_l	mtp_angle_l	lumbar_extension	lumbar_bending	lumbar_rotation	arm_flex_r	arm_add_r	arm_rot_r	elbow_flex_r	pro_sup_r	arm_flex_l	arm_add_l	arm_rot_l	elbow_flex_l	pro_sup_l
     30.28333330	      7.66322512	     -0.10946348	     -5.17397912	      0.40720894	      1.05170423	      0.69704570	      9.14031864	     -2.35938505	      2.15792631	     62.75533355	      1.09528719	     -8.95122579	    -15.84501976	     -7.49999987	      1.64909528	      1.31233474	      1.05816299	     14.40520027	      0.25141817	      3.74911355	     -8.38490385	     -7.49999987	    -21.42685103	     -4.52011811	      3.53448735	      3.99144785	    -14.71348349	      3.52711466	     36.30345871	     80.76250326	     12.63290559	    -13.67527129	     16.51949742	     21.45197931	     87.27917613
     30.30000000	      7.57627194	     -0.37466644	     -4.78193262	      0.40588402	      1.05412545	      0.69645163	     11.02396022	     -1.87425434	      1.85471398	     61.45351267	      1.07256613	     -5.12807716	    -16.28605312	     -7.49999987	      0.67719564	      1.14433184	      1.23150756	     14.25532015	      0.24880227	      4.46528082	     -8.17037594	     -7.49999987	    -21.60675160	     -4.12052541	      3.23107325	      3.49990136	    -14.47792527	      3.67743236	     34.76808495	     80.37397235	     14.29771788	    -14.17652757	     16.99358103	     22.63490972	     86.29852105
     30.31666670	      7.47894044	     -0.64596784	     -4.31098900	      0.40603888	      1.05563639	      0.69565360	     12.65772441	     -1.47323730	      1.42828766	     59.44133632	      1.03744703	     -2.17753259	    -16.66226303	     -7.49999987	     -0.34425362	      0.95438808	      1.58382967	     14.06038368	      0.24539999	      5.24620270	     -8.06991215	     -7.49999987	    -21.74628727	     -3.68987177	      3.15544786	      2.63130687	    -14.40079320	      3.66847570	     33.83510450	     80.54993154	     15.92151501	    -14.53782113	     17.03293586	     23.91589662	     86.30506751
     30.33333330	      7.37846799	     -0.79044506	     -3.84769087	      0.40620378	      1.05605106	      0.69496769	     14.14475329	     -1.27822967	      0.96890144	     57.06574911	      0.99598521	      0.16497556	    -16.53602833	     -7.49999987	     -1.51561513	      0.85033651	      1.82485811	     13.66863818	      0.23856274	      6.19515322	     -7.61849601	     -7.49999987	    -21.72868902	     -3.40307524	      2.93850153	      2.12884773	    -13.99369739	      3.01077431	     32.13775747	     82.22044837	     17.45608259	    -15.12399450	     18.00629788	     24.75854526	     87.52000979
     30.35000000	      7.41326350	     -0.85576859	     -3.31571194	      0.40618793	      1.05530081	      0.69420155	     15.31626743	     -1.19394275	      0.51145950	     54.31154786	      0.94791533	      1.74271631	    -16.43647064	     -7.49999987	     -3.02003017	      0.81743488	      2.15561689	     13.07542279	      0.22820918	      6.93608855	     -7.54226956	     -7.49999987	    -21.78414421	     -3.20662351	      2.83571760	      1.05263344	    -13.79972846	      2.93815542	     31.16960640	     82.55874047	     18.88705781	    -15.33478246	     17.94396537	     25.52130222	     87.67386011
     30.36666670	      7.78605662	     -0.87032890	     -2.85728631	      0.40574433	      1.05400528	      0.69360776	     16.01588654	     -1.18322584	      0.14279355	     51.14115627	      0.89258156	      2.70475750	    -16.30604183	     -7.49999987	     -5.04193801	      0.80128543	      2.25092230	     12.35396102	      0.21561730	      7.47861842	     -7.55114300	     -7.49999987	    -22.35426370	     -3.07225135	      2.66743278	     -0.11967432	    -13.52851896	      2.51233036	     30.51647040	     81.45990224	     19.96496101	    -15.89250942	     17.97923596	     27.25966720	     86.00571424
     30.38333330	      7.78701589	     -0.83883707	     -2.34636821	      0.40547893	      1.05207754	      0.69306230	     16.92881926	     -1.27644250	     -0.34860372	     47.46299051	      0.82838546	      3.29954558	    -15.93119006	     -7.49999987	     -6.58569066	      0.71773786	      2.11135079	     11.89519318	      0.20761029	      8.14858294	     -7.28195813	     -7.49999987	    -22.25766706	     -2.99015565	      3.20571470	     -1.52800789	    -12.76860640	     -0.73422569	     28.59816295	     85.23639219	     22.26702811	    -16.05700534	     20.52845053	     26.77002943	     87.74014915
     30.40000000	      8.02730265	     -0.88479285	     -1.99165913	      0.40508244	      1.05095995	      0.69265171	     17.27481398	     -1.29071499	     -0.79001473	     43.06332048	      0.75159673	      3.29824244	    -15.61194831	     -7.49999987	     -8.35424212	      0.55991742	      2.14001866	     11.51993029	      0.20106071	      8.45561906	     -7.67681495	     -7.49999987	    -22.73256338	     -2.79783239	      4.00822785	     -3.60005499	    -12.24396904	     -4.73702435	     28.69645460	     91.00310452	     24.08763431	    -16.05453316	     21.14595348	     27.48265145	     86.31733770
     30.41666670	      7.99887526	     -0.92887921	     -1.78276095	      0.40500556	      1.04916289	      0.69238853	     17.61178415	     -1.28811136	     -1.18921112	     38.12647947	      0.66543260	      2.88737903	    -15.12367179	     -7.49999987	     -9.68795282	      0.37597310	      2.15825915	     11.33885258	      0.19790031	      8.94633788	     -7.82084019	     -7.49999987	    -22.81485757	     -2.57152833	      4.04366686	     -4.40345041	    -12.00504571	     -5.27135807	     27.29420957	     90.38753784	     24.75248592	    -16.55934063	     20.29343179	     28.97266477	     85.03549552
     30.43333330	      7.82293471	     -0.93623808	     -1.74689395	      0.40516052	      1.04674209	      0.69213786	     17.91855373	     -1.33402115	     -1.48346441	     32.97268786	      0.57548197	      2.28495555	    -14.33308194	     -7.49999987	    -10.76457068	      0.26927734	      2.27005692	     11.19616115	      0.19540988	      9.48615917	     -7.95918460	     -7.49999987	    -22.71374105	     -2.40502822	      4.47978853	     -5.46728830	    -11.79700754	     -6.12315759	     26.42384748	     90.19494945	     25.24849355	    -16.81166501	     19.45813588	     30.48309338	     84.15378207
     30.45000000	      7.63422334	     -0.87410778	     -1.67852950	      0.40543499	      1.04437083	      0.69197656	     18.05611267	     -1.49955682	     -1.86235438	     27.60163529	      0.48173941	      1.58854468	    -13.13242309	     -7.49999987	    -11.75305438	      0.22859949	      2.46862637	     11.02079439	      0.19234915	     10.08796976	     -7.98699960	     -7.49999987	    -22.62016792	     -2.30905606	      4.98804274	     -6.57168719	    -11.59984874	     -6.95864555	     25.90504836	     90.53544508	     25.78199571	    -16.91591259	     18.73784908	     31.73475104	     83.99568995
